<svg xmlns="http://www.w3.org/2000/svg" viewBox="0 0 7.16 9.17">
  <defs>
    <style>
      .cls-1 {
        fill: none;
        stroke: #4c4c4c;
        stroke-miterlimit: 10;
        stroke-width: 0.44px;
      }

      .cls-2 {
        fill: #4c4c4c;
      }
    </style>
  </defs>
  <g id="Livello_2" data-name="Livello 2">
    <g id="_ÎÓÈ_1" data-name="—ÎÓÈ_1">
      <g>
        <polyline class="cls-1" points="6.94 1.68 6.94 8.95 0.22 8.95 0.22 0.22 5.44 0.22"/>
        <path class="cls-1" d="M6.93,1.68H5.44V.23s0,0,0,0L6.93,1.67Z"/>
      </g>
      <polyline class="cls-1" points="2.32 6.84 3.51 8.02 4.69 6.84"/>
      <line class="cls-1" x1="3.52" y1="8.02" x2="3.5" y2="5.09"/>
      <g>
        <path class="cls-2" d="M2.56,3.09a.64.64,0,0,1-.17.47.77.77,0,0,1-.5.16H1.75v.59H1.27V2.53h.62a.73.73,0,0,1,.5.15A.48.48,0,0,1,2.56,3.09Zm-.81.24h.09A.24.24,0,0,0,2,3.27a.26.26,0,0,0,.07-.17c0-.12-.07-.18-.2-.18H1.75Z"/>
        <path class="cls-2" d="M4.35,3.38a.93.93,0,0,1-.24.69.93.93,0,0,1-.69.24H2.85V2.53h.61a.89.89,0,0,1,.66.22A.8.8,0,0,1,4.35,3.38Zm-.49,0A.55.55,0,0,0,3.76,3a.36.36,0,0,0-.29-.12H3.33v1h.1a.38.38,0,0,0,.32-.12A.62.62,0,0,0,3.86,3.4Z"/>
        <path class="cls-2" d="M5.15,4.31H4.67V2.53h1v.39H5.15v.33h.53v.39H5.15Z"/>
      </g>
    </g>
  </g>
</svg>
